<mxfile host="app.diagrams.net" modified="2022-07-27T06:54:06.327Z" agent="5.0 (Windows NT 10.0; Win64; x64) AppleWebKit/537.36 (KHTML, like Gecko) Chrome/103.0.0.0 Safari/537.36" etag="hV06azjNcQ84qseMArTU" version="18.0.3" type="github">
  <diagram id="Ja1XeNCDNdM596rMgVji" name="Page-1">
    <mxGraphModel dx="2595" dy="1543" grid="1" gridSize="10" guides="1" tooltips="1" connect="1" arrows="1" fold="1" page="1" pageScale="1" pageWidth="850" pageHeight="1100" math="0" shadow="0">
      <root>
        <mxCell id="0" />
        <mxCell id="1" parent="0" />
        <mxCell id="eD_W4F-ZqSLjkosWsmbn-8" value="" style="endArrow=classic;html=1;rounded=0;" parent="1" edge="1">
          <mxGeometry width="50" height="50" relative="1" as="geometry">
            <mxPoint x="160" y="360" as="sourcePoint" />
            <mxPoint x="160" y="40" as="targetPoint" />
          </mxGeometry>
        </mxCell>
        <mxCell id="eD_W4F-ZqSLjkosWsmbn-9" value="" style="endArrow=classic;html=1;rounded=0;" parent="1" edge="1">
          <mxGeometry width="50" height="50" relative="1" as="geometry">
            <mxPoint x="160" y="360" as="sourcePoint" />
            <mxPoint x="1040" y="360" as="targetPoint" />
          </mxGeometry>
        </mxCell>
        <mxCell id="eD_W4F-ZqSLjkosWsmbn-11" value="" style="rounded=0;whiteSpace=wrap;html=1;fillColor=#dae8fc;strokeColor=#6c8ebf;" parent="1" vertex="1">
          <mxGeometry x="200" y="120" width="40" height="240" as="geometry" />
        </mxCell>
        <mxCell id="eD_W4F-ZqSLjkosWsmbn-12" value="" style="rounded=0;whiteSpace=wrap;html=1;fillColor=#dae8fc;strokeColor=#6c8ebf;" parent="1" vertex="1">
          <mxGeometry x="280" y="140" width="40" height="220" as="geometry" />
        </mxCell>
        <mxCell id="eD_W4F-ZqSLjkosWsmbn-13" value="" style="rounded=0;whiteSpace=wrap;html=1;fillColor=#dae8fc;strokeColor=#6c8ebf;" parent="1" vertex="1">
          <mxGeometry x="360" y="170" width="40" height="190" as="geometry" />
        </mxCell>
        <mxCell id="eD_W4F-ZqSLjkosWsmbn-14" value="" style="rounded=0;whiteSpace=wrap;html=1;fillColor=#dae8fc;strokeColor=#6c8ebf;" parent="1" vertex="1">
          <mxGeometry x="440" y="180" width="40" height="180" as="geometry" />
        </mxCell>
        <mxCell id="eD_W4F-ZqSLjkosWsmbn-15" value="" style="rounded=0;whiteSpace=wrap;html=1;fillColor=#dae8fc;strokeColor=#6c8ebf;" parent="1" vertex="1">
          <mxGeometry x="520" y="200" width="40" height="160" as="geometry" />
        </mxCell>
        <mxCell id="eD_W4F-ZqSLjkosWsmbn-16" value="" style="rounded=0;whiteSpace=wrap;html=1;fillColor=#dae8fc;strokeColor=#6c8ebf;" parent="1" vertex="1">
          <mxGeometry x="600" y="210" width="40" height="150" as="geometry" />
        </mxCell>
        <mxCell id="eD_W4F-ZqSLjkosWsmbn-17" value="" style="rounded=0;whiteSpace=wrap;html=1;fillColor=#dae8fc;strokeColor=#6c8ebf;" parent="1" vertex="1">
          <mxGeometry x="680" y="250" width="40" height="110" as="geometry" />
        </mxCell>
        <mxCell id="eD_W4F-ZqSLjkosWsmbn-18" value="" style="rounded=0;whiteSpace=wrap;html=1;fillColor=#dae8fc;strokeColor=#6c8ebf;" parent="1" vertex="1">
          <mxGeometry x="760" y="270" width="40" height="90" as="geometry" />
        </mxCell>
        <mxCell id="eD_W4F-ZqSLjkosWsmbn-19" value="" style="rounded=0;whiteSpace=wrap;html=1;fillColor=#dae8fc;strokeColor=#6c8ebf;" parent="1" vertex="1">
          <mxGeometry x="840" y="320" width="40" height="40" as="geometry" />
        </mxCell>
        <mxCell id="eD_W4F-ZqSLjkosWsmbn-20" value="" style="rounded=0;whiteSpace=wrap;html=1;fillColor=#dae8fc;strokeColor=#6c8ebf;" parent="1" vertex="1">
          <mxGeometry x="920" y="330" width="40" height="30" as="geometry" />
        </mxCell>
        <mxCell id="eD_W4F-ZqSLjkosWsmbn-21" value="Zimbabwe" style="text;html=1;align=center;verticalAlign=middle;resizable=0;points=[];autosize=1;strokeColor=none;fillColor=none;" parent="1" vertex="1">
          <mxGeometry x="185" y="360" width="70" height="20" as="geometry" />
        </mxCell>
        <mxCell id="eD_W4F-ZqSLjkosWsmbn-22" value="Malawi" style="text;html=1;align=center;verticalAlign=middle;resizable=0;points=[];autosize=1;strokeColor=none;fillColor=none;" parent="1" vertex="1">
          <mxGeometry x="275" y="360" width="50" height="20" as="geometry" />
        </mxCell>
        <mxCell id="eD_W4F-ZqSLjkosWsmbn-23" value="Comoros" style="text;html=1;align=center;verticalAlign=middle;resizable=0;points=[];autosize=1;strokeColor=none;fillColor=none;" parent="1" vertex="1">
          <mxGeometry x="350" y="360" width="60" height="20" as="geometry" />
        </mxCell>
        <mxCell id="eD_W4F-ZqSLjkosWsmbn-24" value="Saudi Arabia" style="text;html=1;align=center;verticalAlign=middle;resizable=0;points=[];autosize=1;strokeColor=none;fillColor=none;" parent="1" vertex="1">
          <mxGeometry x="420" y="360" width="80" height="20" as="geometry" />
        </mxCell>
        <mxCell id="eD_W4F-ZqSLjkosWsmbn-25" value="Thailand" style="text;html=1;align=center;verticalAlign=middle;resizable=0;points=[];autosize=1;strokeColor=none;fillColor=none;" parent="1" vertex="1">
          <mxGeometry x="510" y="360" width="60" height="20" as="geometry" />
        </mxCell>
        <mxCell id="eD_W4F-ZqSLjkosWsmbn-26" value="Yemen" style="text;html=1;align=center;verticalAlign=middle;resizable=0;points=[];autosize=1;strokeColor=none;fillColor=none;" parent="1" vertex="1">
          <mxGeometry x="595" y="360" width="50" height="20" as="geometry" />
        </mxCell>
        <mxCell id="eD_W4F-ZqSLjkosWsmbn-27" value="India" style="text;html=1;align=center;verticalAlign=middle;resizable=0;points=[];autosize=1;strokeColor=none;fillColor=none;" parent="1" vertex="1">
          <mxGeometry x="680" y="360" width="40" height="20" as="geometry" />
        </mxCell>
        <mxCell id="eD_W4F-ZqSLjkosWsmbn-28" value="China" style="text;html=1;align=center;verticalAlign=middle;resizable=0;points=[];autosize=1;strokeColor=none;fillColor=none;" parent="1" vertex="1">
          <mxGeometry x="755" y="360" width="50" height="20" as="geometry" />
        </mxCell>
        <mxCell id="eD_W4F-ZqSLjkosWsmbn-29" value="Russia" style="text;html=1;align=center;verticalAlign=middle;resizable=0;points=[];autosize=1;strokeColor=none;fillColor=none;" parent="1" vertex="1">
          <mxGeometry x="835" y="360" width="50" height="20" as="geometry" />
        </mxCell>
        <mxCell id="eD_W4F-ZqSLjkosWsmbn-30" value="United States" style="text;html=1;align=center;verticalAlign=middle;resizable=0;points=[];autosize=1;" parent="1" vertex="1">
          <mxGeometry x="895" y="360" width="90" height="20" as="geometry" />
        </mxCell>
        <mxCell id="eD_W4F-ZqSLjkosWsmbn-32" value="61.90%" style="text;html=1;align=center;verticalAlign=middle;resizable=0;points=[];autosize=1;strokeColor=none;fillColor=none;" parent="1" vertex="1">
          <mxGeometry x="190" y="100" width="60" height="20" as="geometry" />
        </mxCell>
        <mxCell id="eD_W4F-ZqSLjkosWsmbn-33" value="51.62%" style="text;html=1;align=center;verticalAlign=middle;resizable=0;points=[];autosize=1;strokeColor=none;fillColor=none;" parent="1" vertex="1">
          <mxGeometry x="270" y="120" width="60" height="20" as="geometry" />
        </mxCell>
        <mxCell id="eD_W4F-ZqSLjkosWsmbn-34" value="41.68%" style="text;html=1;align=center;verticalAlign=middle;resizable=0;points=[];autosize=1;strokeColor=none;fillColor=none;" parent="1" vertex="1">
          <mxGeometry x="350" y="150" width="60" height="20" as="geometry" />
        </mxCell>
        <mxCell id="eD_W4F-ZqSLjkosWsmbn-35" value="34.57%" style="text;html=1;align=center;verticalAlign=middle;resizable=0;points=[];autosize=1;strokeColor=none;fillColor=none;" parent="1" vertex="1">
          <mxGeometry x="430" y="160" width="60" height="20" as="geometry" />
        </mxCell>
        <mxCell id="eD_W4F-ZqSLjkosWsmbn-36" value="30.24%" style="text;html=1;align=center;verticalAlign=middle;resizable=0;points=[];autosize=1;strokeColor=none;fillColor=none;" parent="1" vertex="1">
          <mxGeometry x="510" y="180" width="60" height="20" as="geometry" />
        </mxCell>
        <mxCell id="eD_W4F-ZqSLjkosWsmbn-37" value="29.03%" style="text;html=1;align=center;verticalAlign=middle;resizable=0;points=[];autosize=1;strokeColor=none;fillColor=none;" parent="1" vertex="1">
          <mxGeometry x="590" y="190" width="60" height="20" as="geometry" />
        </mxCell>
        <mxCell id="eD_W4F-ZqSLjkosWsmbn-38" value="23.87%" style="text;html=1;align=center;verticalAlign=middle;resizable=0;points=[];autosize=1;strokeColor=none;fillColor=none;" parent="1" vertex="1">
          <mxGeometry x="670" y="230" width="60" height="20" as="geometry" />
        </mxCell>
        <mxCell id="eD_W4F-ZqSLjkosWsmbn-39" value="17.73%" style="text;html=1;align=center;verticalAlign=middle;resizable=0;points=[];autosize=1;strokeColor=none;fillColor=none;" parent="1" vertex="1">
          <mxGeometry x="750" y="250" width="60" height="20" as="geometry" />
        </mxCell>
        <mxCell id="eD_W4F-ZqSLjkosWsmbn-40" value="15.93%" style="text;html=1;align=center;verticalAlign=middle;resizable=0;points=[];autosize=1;strokeColor=none;fillColor=none;" parent="1" vertex="1">
          <mxGeometry x="830" y="300" width="60" height="20" as="geometry" />
        </mxCell>
        <mxCell id="eD_W4F-ZqSLjkosWsmbn-41" value="10.92%" style="text;html=1;align=center;verticalAlign=middle;resizable=0;points=[];autosize=1;strokeColor=none;fillColor=none;" parent="1" vertex="1">
          <mxGeometry x="910" y="310" width="60" height="20" as="geometry" />
        </mxCell>
        <mxCell id="eD_W4F-ZqSLjkosWsmbn-42" value="" style="endArrow=classic;html=1;rounded=0;" parent="1" edge="1">
          <mxGeometry width="50" height="50" relative="1" as="geometry">
            <mxPoint x="240" y="400" as="sourcePoint" />
            <mxPoint x="880" y="400" as="targetPoint" />
          </mxGeometry>
        </mxCell>
        <mxCell id="eD_W4F-ZqSLjkosWsmbn-43" value="Name of countries" style="edgeLabel;html=1;align=center;verticalAlign=middle;resizable=0;points=[];" parent="eD_W4F-ZqSLjkosWsmbn-42" vertex="1" connectable="0">
          <mxGeometry x="-0.1061" y="-2" relative="1" as="geometry">
            <mxPoint as="offset" />
          </mxGeometry>
        </mxCell>
        <mxCell id="eD_W4F-ZqSLjkosWsmbn-44" value="" style="endArrow=classic;html=1;rounded=0;" parent="1" edge="1">
          <mxGeometry width="50" height="50" relative="1" as="geometry">
            <mxPoint x="140" y="360" as="sourcePoint" />
            <mxPoint x="140" y="60" as="targetPoint" />
          </mxGeometry>
        </mxCell>
        <mxCell id="eD_W4F-ZqSLjkosWsmbn-45" value="Deadth Rate per 100,000" style="edgeLabel;html=1;align=center;verticalAlign=middle;resizable=0;points=[];rotation=-90;" parent="eD_W4F-ZqSLjkosWsmbn-44" vertex="1" connectable="0">
          <mxGeometry x="-0.0491" y="-1" relative="1" as="geometry">
            <mxPoint as="offset" />
          </mxGeometry>
        </mxCell>
        <mxCell id="eD_W4F-ZqSLjkosWsmbn-46" value="Raspberry Pi" style="rounded=1;whiteSpace=wrap;html=1;fillColor=#e1d5e7;strokeColor=#9673a6;" parent="1" vertex="1">
          <mxGeometry x="470" y="650" width="120" height="60" as="geometry" />
        </mxCell>
        <mxCell id="eD_W4F-ZqSLjkosWsmbn-52" value="" style="endArrow=classic;startArrow=classic;html=1;rounded=0;" parent="1" target="eD_W4F-ZqSLjkosWsmbn-57" edge="1">
          <mxGeometry width="50" height="50" relative="1" as="geometry">
            <mxPoint x="590" y="650" as="sourcePoint" />
            <mxPoint x="640" y="600" as="targetPoint" />
          </mxGeometry>
        </mxCell>
        <mxCell id="eD_W4F-ZqSLjkosWsmbn-53" value="" style="endArrow=classic;startArrow=classic;html=1;rounded=0;entryX=0;entryY=1;entryDx=0;entryDy=0;exitX=0.551;exitY=-0.01;exitDx=0;exitDy=0;exitPerimeter=0;" parent="1" source="eD_W4F-ZqSLjkosWsmbn-60" target="eD_W4F-ZqSLjkosWsmbn-46" edge="1">
          <mxGeometry width="50" height="50" relative="1" as="geometry">
            <mxPoint x="435" y="760" as="sourcePoint" />
            <mxPoint x="485" y="710" as="targetPoint" />
          </mxGeometry>
        </mxCell>
        <mxCell id="eD_W4F-ZqSLjkosWsmbn-54" value="" style="endArrow=classic;startArrow=classic;html=1;rounded=0;" parent="1" target="eD_W4F-ZqSLjkosWsmbn-58" edge="1">
          <mxGeometry width="50" height="50" relative="1" as="geometry">
            <mxPoint x="590" y="710" as="sourcePoint" />
            <mxPoint x="640" y="750" as="targetPoint" />
          </mxGeometry>
        </mxCell>
        <mxCell id="eD_W4F-ZqSLjkosWsmbn-55" value="" style="endArrow=classic;startArrow=classic;html=1;rounded=0;" parent="1" target="eD_W4F-ZqSLjkosWsmbn-56" edge="1">
          <mxGeometry width="50" height="50" relative="1" as="geometry">
            <mxPoint x="470" y="650" as="sourcePoint" />
            <mxPoint x="400" y="610" as="targetPoint" />
          </mxGeometry>
        </mxCell>
        <mxCell id="eD_W4F-ZqSLjkosWsmbn-56" value="Switch" style="rounded=1;whiteSpace=wrap;html=1;fillColor=#f8cecc;strokeColor=#b85450;" parent="1" vertex="1">
          <mxGeometry x="380" y="540.0000000000001" width="120" height="60" as="geometry" />
        </mxCell>
        <mxCell id="eD_W4F-ZqSLjkosWsmbn-57" value="Ultrasonic Sensor" style="rounded=1;whiteSpace=wrap;html=1;fillColor=#f8cecc;strokeColor=#b85450;" parent="1" vertex="1">
          <mxGeometry x="560" y="540.0000000000001" width="120" height="60" as="geometry" />
        </mxCell>
        <mxCell id="eD_W4F-ZqSLjkosWsmbn-58" value="LED" style="rounded=1;whiteSpace=wrap;html=1;fillColor=#f8cecc;strokeColor=#b85450;" parent="1" vertex="1">
          <mxGeometry x="550" y="750" width="120" height="60" as="geometry" />
        </mxCell>
        <mxCell id="eD_W4F-ZqSLjkosWsmbn-60" value="LCD" style="rounded=1;whiteSpace=wrap;html=1;fillColor=#f8cecc;strokeColor=#b85450;" parent="1" vertex="1">
          <mxGeometry x="370" y="750" width="120" height="60" as="geometry" />
        </mxCell>
        <mxCell id="eD_W4F-ZqSLjkosWsmbn-61" value="&lt;span&gt;Raspberry Pi&lt;/span&gt;" style="rounded=0;whiteSpace=wrap;html=1;fillColor=#d5e8d4;strokeColor=#82b366;" parent="1" vertex="1">
          <mxGeometry x="1400" y="570" width="120" height="160" as="geometry" />
        </mxCell>
        <mxCell id="eD_W4F-ZqSLjkosWsmbn-62" value="Switch" style="rounded=1;whiteSpace=wrap;html=1;fillColor=#dae8fc;strokeColor=#6c8ebf;" parent="1" vertex="1">
          <mxGeometry x="1400" y="750" width="120" height="60" as="geometry" />
        </mxCell>
        <mxCell id="eD_W4F-ZqSLjkosWsmbn-66" value="&lt;span&gt;LED&lt;/span&gt;" style="rounded=1;whiteSpace=wrap;html=1;fillColor=#f8cecc;strokeColor=#b85450;" parent="1" vertex="1">
          <mxGeometry x="1550" y="720" width="120" height="60" as="geometry" />
        </mxCell>
        <mxCell id="eD_W4F-ZqSLjkosWsmbn-67" value="&lt;span&gt;Ultrasonic Sensor-2&lt;/span&gt;" style="rounded=1;whiteSpace=wrap;html=1;fillColor=#ffe6cc;strokeColor=#d79b00;" parent="1" vertex="1">
          <mxGeometry x="1250" y="710" width="120" height="60" as="geometry" />
        </mxCell>
        <mxCell id="eD_W4F-ZqSLjkosWsmbn-68" value="&lt;span&gt;Ultrasonic Sensor-1&lt;/span&gt;" style="rounded=1;whiteSpace=wrap;html=1;fillColor=#ffe6cc;strokeColor=#d79b00;" parent="1" vertex="1">
          <mxGeometry x="1250" y="540" width="120" height="60" as="geometry" />
        </mxCell>
        <mxCell id="eD_W4F-ZqSLjkosWsmbn-69" value="LCD" style="rounded=1;whiteSpace=wrap;html=1;fillColor=#f8cecc;strokeColor=#b85450;" parent="1" vertex="1">
          <mxGeometry x="1560" y="550" width="120" height="60" as="geometry" />
        </mxCell>
        <mxCell id="eD_W4F-ZqSLjkosWsmbn-76" value="" style="ellipse;whiteSpace=wrap;html=1;" parent="1" vertex="1">
          <mxGeometry x="1450" y="10" width="120" height="80" as="geometry" />
        </mxCell>
        <mxCell id="eD_W4F-ZqSLjkosWsmbn-78" value="" style="rhombus;whiteSpace=wrap;html=1;" parent="1" vertex="1">
          <mxGeometry x="1480" y="245" width="80" height="80" as="geometry" />
        </mxCell>
        <mxCell id="eD_W4F-ZqSLjkosWsmbn-81" value="" style="edgeStyle=orthogonalEdgeStyle;rounded=0;orthogonalLoop=1;jettySize=auto;html=1;" parent="1" source="eD_W4F-ZqSLjkosWsmbn-79" target="eD_W4F-ZqSLjkosWsmbn-78" edge="1">
          <mxGeometry relative="1" as="geometry" />
        </mxCell>
        <mxCell id="eD_W4F-ZqSLjkosWsmbn-79" value="" style="shape=loopLimit;whiteSpace=wrap;html=1;" parent="1" vertex="1">
          <mxGeometry x="1470" y="130" width="100" height="80" as="geometry" />
        </mxCell>
        <mxCell id="eD_W4F-ZqSLjkosWsmbn-80" value="" style="endArrow=classic;html=1;rounded=0;exitX=0.5;exitY=1;exitDx=0;exitDy=0;entryX=0.432;entryY=-0.052;entryDx=0;entryDy=0;entryPerimeter=0;" parent="1" source="eD_W4F-ZqSLjkosWsmbn-76" target="eD_W4F-ZqSLjkosWsmbn-79" edge="1">
          <mxGeometry width="50" height="50" relative="1" as="geometry">
            <mxPoint x="1500" y="300" as="sourcePoint" />
            <mxPoint x="1520" y="330" as="targetPoint" />
          </mxGeometry>
        </mxCell>
        <mxCell id="PcfDWgKHmJk-7Qb6r5zX-1" value="&lt;font size=&quot;1&quot; face=&quot;Times New Roman&quot;&gt;&lt;b style=&quot;font-size: 19px;&quot;&gt;Start&lt;/b&gt;&lt;/font&gt;" style="strokeWidth=2;html=1;shape=mxgraph.flowchart.terminator;whiteSpace=wrap;fillColor=#dae8fc;strokeColor=#6c8ebf;" parent="1" vertex="1">
          <mxGeometry x="770" y="870" width="100" height="60" as="geometry" />
        </mxCell>
        <mxCell id="PcfDWgKHmJk-7Qb6r5zX-3" value="&lt;b style=&quot;font-family: &amp;quot;Times New Roman&amp;quot;; font-size: 19px;&quot;&gt;Start&lt;/b&gt;" style="strokeWidth=2;html=1;shape=mxgraph.flowchart.terminator;whiteSpace=wrap;fillColor=#dae8fc;strokeColor=#6c8ebf;" parent="1" vertex="1">
          <mxGeometry x="1240" y="890" width="100" height="60" as="geometry" />
        </mxCell>
        <mxCell id="PcfDWgKHmJk-7Qb6r5zX-4" value="&lt;font face=&quot;Times New Roman&quot;&gt;&lt;span style=&quot;font-size: 19px;&quot;&gt;&lt;b&gt;End&lt;/b&gt;&lt;/span&gt;&lt;/font&gt;" style="strokeWidth=2;html=1;shape=mxgraph.flowchart.terminator;whiteSpace=wrap;fillColor=#dae8fc;strokeColor=#6c8ebf;" parent="1" vertex="1">
          <mxGeometry x="770" y="1360" width="100" height="60" as="geometry" />
        </mxCell>
        <mxCell id="PcfDWgKHmJk-7Qb6r5zX-5" value="&lt;font size=&quot;1&quot; face=&quot;Times New Roman&quot;&gt;&lt;b style=&quot;font-size: 19px;&quot;&gt;End&lt;/b&gt;&lt;/font&gt;" style="strokeWidth=2;html=1;shape=mxgraph.flowchart.terminator;whiteSpace=wrap;fillColor=#dae8fc;strokeColor=#6c8ebf;" parent="1" vertex="1">
          <mxGeometry x="1230" y="1380" width="100" height="60" as="geometry" />
        </mxCell>
        <mxCell id="PcfDWgKHmJk-7Qb6r5zX-6" value="&lt;b&gt;&lt;font style=&quot;font-size: 14px;&quot; face=&quot;Times New Roman&quot;&gt;Press the button?&amp;nbsp;&amp;nbsp;&lt;/font&gt;&lt;/b&gt;" style="rounded=1;whiteSpace=wrap;html=1;fillColor=#f8cecc;strokeColor=#b85450;" parent="1" vertex="1">
          <mxGeometry x="1235" y="1010" width="120" height="60" as="geometry" />
        </mxCell>
        <mxCell id="PcfDWgKHmJk-7Qb6r5zX-7" value="Waiting for the sensors to send data&amp;nbsp; and calculating.." style="rounded=1;whiteSpace=wrap;html=1;fillColor=#f8cecc;strokeColor=#b85450;" parent="1" vertex="1">
          <mxGeometry x="770" y="980" width="120" height="60" as="geometry" />
        </mxCell>
        <mxCell id="PcfDWgKHmJk-7Qb6r5zX-9" value="Positive or negative?" style="rhombus;whiteSpace=wrap;html=1;fontFamily=Times New Roman;fontSize=19;fillColor=#f5f5f5;fontColor=#333333;strokeColor=#666666;" parent="1" vertex="1">
          <mxGeometry x="760" y="1080" width="120" height="140" as="geometry" />
        </mxCell>
        <mxCell id="PcfDWgKHmJk-7Qb6r5zX-10" value="Button pressed?" style="rhombus;whiteSpace=wrap;html=1;fontFamily=Times New Roman;fontSize=19;fillColor=#f5f5f5;fontColor=#333333;strokeColor=#666666;" parent="1" vertex="1">
          <mxGeometry x="1250" y="1115" width="90" height="110" as="geometry" />
        </mxCell>
        <mxCell id="PcfDWgKHmJk-7Qb6r5zX-11" value="LED will be OFF" style="rounded=0;whiteSpace=wrap;html=1;fontFamily=Times New Roman;fontSize=19;fillColor=#ffe6cc;strokeColor=#d79b00;" parent="1" vertex="1">
          <mxGeometry x="640" y="1230" width="120" height="60" as="geometry" />
        </mxCell>
        <mxCell id="PcfDWgKHmJk-7Qb6r5zX-12" value="LED will turn ON" style="rounded=0;whiteSpace=wrap;html=1;fontFamily=Times New Roman;fontSize=19;fillColor=#d5e8d4;strokeColor=#82b366;" parent="1" vertex="1">
          <mxGeometry x="885" y="1220" width="120" height="60" as="geometry" />
        </mxCell>
        <mxCell id="PcfDWgKHmJk-7Qb6r5zX-14" value="System will wait" style="rounded=0;whiteSpace=wrap;html=1;fontFamily=Times New Roman;fontSize=19;fillColor=#ffe6cc;strokeColor=#d79b00;" parent="1" vertex="1">
          <mxGeometry x="1100" y="1250" width="120" height="60" as="geometry" />
        </mxCell>
        <mxCell id="PcfDWgKHmJk-7Qb6r5zX-15" value="LED will turn red and message will display" style="rounded=0;whiteSpace=wrap;html=1;fontFamily=Times New Roman;fontSize=19;fillColor=#d5e8d4;strokeColor=#82b366;" parent="1" vertex="1">
          <mxGeometry x="1340" y="1240" width="140" height="80" as="geometry" />
        </mxCell>
        <mxCell id="PcfDWgKHmJk-7Qb6r5zX-16" value="" style="endArrow=classic;html=1;rounded=0;fontFamily=Times New Roman;fontSize=19;exitX=0.5;exitY=1;exitDx=0;exitDy=0;exitPerimeter=0;entryX=0.417;entryY=0.167;entryDx=0;entryDy=0;entryPerimeter=0;" parent="1" source="PcfDWgKHmJk-7Qb6r5zX-1" target="PcfDWgKHmJk-7Qb6r5zX-7" edge="1">
          <mxGeometry width="50" height="50" relative="1" as="geometry">
            <mxPoint x="1050" y="1180" as="sourcePoint" />
            <mxPoint x="1100" y="1130" as="targetPoint" />
          </mxGeometry>
        </mxCell>
        <mxCell id="PcfDWgKHmJk-7Qb6r5zX-18" value="" style="endArrow=classic;html=1;rounded=0;fontFamily=Times New Roman;fontSize=19;exitX=1;exitY=0.5;exitDx=0;exitDy=0;entryX=0.5;entryY=0;entryDx=0;entryDy=0;" parent="1" source="PcfDWgKHmJk-7Qb6r5zX-9" target="PcfDWgKHmJk-7Qb6r5zX-12" edge="1">
          <mxGeometry width="50" height="50" relative="1" as="geometry">
            <mxPoint x="930" y="1130" as="sourcePoint" />
            <mxPoint x="980" y="1150" as="targetPoint" />
            <Array as="points">
              <mxPoint x="945" y="1150" />
            </Array>
          </mxGeometry>
        </mxCell>
        <mxCell id="PcfDWgKHmJk-7Qb6r5zX-19" value="" style="endArrow=classic;html=1;rounded=0;fontFamily=Times New Roman;fontSize=19;exitX=0.44;exitY=1.017;exitDx=0;exitDy=0;exitPerimeter=0;entryX=0.5;entryY=0;entryDx=0;entryDy=0;" parent="1" source="PcfDWgKHmJk-7Qb6r5zX-7" target="PcfDWgKHmJk-7Qb6r5zX-9" edge="1">
          <mxGeometry width="50" height="50" relative="1" as="geometry">
            <mxPoint x="1050" y="1180" as="sourcePoint" />
            <mxPoint x="1100" y="1130" as="targetPoint" />
          </mxGeometry>
        </mxCell>
        <mxCell id="PcfDWgKHmJk-7Qb6r5zX-20" value="" style="endArrow=classic;html=1;rounded=0;fontFamily=Times New Roman;fontSize=19;exitX=0;exitY=0.5;exitDx=0;exitDy=0;entryX=0.403;entryY=0.01;entryDx=0;entryDy=0;entryPerimeter=0;" parent="1" source="PcfDWgKHmJk-7Qb6r5zX-9" target="PcfDWgKHmJk-7Qb6r5zX-11" edge="1">
          <mxGeometry width="50" height="50" relative="1" as="geometry">
            <mxPoint x="1050" y="1250" as="sourcePoint" />
            <mxPoint x="1100" y="1200" as="targetPoint" />
            <Array as="points">
              <mxPoint x="690" y="1150" />
            </Array>
          </mxGeometry>
        </mxCell>
        <mxCell id="PcfDWgKHmJk-7Qb6r5zX-21" value="" style="endArrow=classic;html=1;rounded=0;fontFamily=Times New Roman;fontSize=19;exitX=0.5;exitY=1;exitDx=0;exitDy=0;entryX=0;entryY=0.667;entryDx=0;entryDy=0;entryPerimeter=0;" parent="1" source="PcfDWgKHmJk-7Qb6r5zX-11" target="PcfDWgKHmJk-7Qb6r5zX-4" edge="1">
          <mxGeometry width="50" height="50" relative="1" as="geometry">
            <mxPoint x="1050" y="1290" as="sourcePoint" />
            <mxPoint x="1100" y="1240" as="targetPoint" />
            <Array as="points">
              <mxPoint x="700" y="1400" />
            </Array>
          </mxGeometry>
        </mxCell>
        <mxCell id="PcfDWgKHmJk-7Qb6r5zX-22" value="" style="endArrow=classic;html=1;rounded=0;fontFamily=Times New Roman;fontSize=19;exitX=0.5;exitY=1;exitDx=0;exitDy=0;entryX=1;entryY=0.667;entryDx=0;entryDy=0;entryPerimeter=0;" parent="1" source="PcfDWgKHmJk-7Qb6r5zX-12" target="PcfDWgKHmJk-7Qb6r5zX-4" edge="1">
          <mxGeometry width="50" height="50" relative="1" as="geometry">
            <mxPoint x="1050" y="1290" as="sourcePoint" />
            <mxPoint x="1100" y="1240" as="targetPoint" />
            <Array as="points">
              <mxPoint x="945" y="1400" />
            </Array>
          </mxGeometry>
        </mxCell>
        <mxCell id="PcfDWgKHmJk-7Qb6r5zX-23" value="" style="endArrow=classic;html=1;rounded=0;fontFamily=Times New Roman;fontSize=19;entryX=1;entryY=0.5;entryDx=0;entryDy=0;entryPerimeter=0;exitX=0.5;exitY=1;exitDx=0;exitDy=0;" parent="1" source="PcfDWgKHmJk-7Qb6r5zX-15" target="PcfDWgKHmJk-7Qb6r5zX-5" edge="1">
          <mxGeometry width="50" height="50" relative="1" as="geometry">
            <mxPoint x="1050" y="1170" as="sourcePoint" />
            <mxPoint x="1100" y="1120" as="targetPoint" />
            <Array as="points">
              <mxPoint x="1410" y="1410" />
            </Array>
          </mxGeometry>
        </mxCell>
        <mxCell id="PcfDWgKHmJk-7Qb6r5zX-24" value="" style="endArrow=classic;html=1;rounded=0;fontFamily=Times New Roman;fontSize=19;entryX=0;entryY=0.5;entryDx=0;entryDy=0;entryPerimeter=0;" parent="1" target="PcfDWgKHmJk-7Qb6r5zX-5" edge="1">
          <mxGeometry width="50" height="50" relative="1" as="geometry">
            <mxPoint x="1160" y="1310" as="sourcePoint" />
            <mxPoint x="1100" y="1120" as="targetPoint" />
            <Array as="points">
              <mxPoint x="1160" y="1410" />
            </Array>
          </mxGeometry>
        </mxCell>
        <mxCell id="PcfDWgKHmJk-7Qb6r5zX-25" value="" style="endArrow=classic;html=1;rounded=0;fontFamily=Times New Roman;fontSize=19;entryX=0.5;entryY=0;entryDx=0;entryDy=0;exitX=1;exitY=0.5;exitDx=0;exitDy=0;" parent="1" source="PcfDWgKHmJk-7Qb6r5zX-10" target="PcfDWgKHmJk-7Qb6r5zX-15" edge="1">
          <mxGeometry width="50" height="50" relative="1" as="geometry">
            <mxPoint x="1050" y="1170" as="sourcePoint" />
            <mxPoint x="1100" y="1120" as="targetPoint" />
            <Array as="points">
              <mxPoint x="1410" y="1170" />
            </Array>
          </mxGeometry>
        </mxCell>
        <mxCell id="PcfDWgKHmJk-7Qb6r5zX-26" value="" style="endArrow=classic;html=1;rounded=0;fontFamily=Times New Roman;fontSize=19;entryX=0.5;entryY=0;entryDx=0;entryDy=0;exitX=0;exitY=0.5;exitDx=0;exitDy=0;" parent="1" source="PcfDWgKHmJk-7Qb6r5zX-10" target="PcfDWgKHmJk-7Qb6r5zX-14" edge="1">
          <mxGeometry width="50" height="50" relative="1" as="geometry">
            <mxPoint x="1050" y="1170" as="sourcePoint" />
            <mxPoint x="1100" y="1120" as="targetPoint" />
            <Array as="points">
              <mxPoint x="1160" y="1170" />
            </Array>
          </mxGeometry>
        </mxCell>
        <mxCell id="PcfDWgKHmJk-7Qb6r5zX-27" value="" style="endArrow=classic;html=1;rounded=0;fontFamily=Times New Roman;fontSize=19;entryX=0.5;entryY=0;entryDx=0;entryDy=0;exitX=0.5;exitY=1;exitDx=0;exitDy=0;" parent="1" source="PcfDWgKHmJk-7Qb6r5zX-6" target="PcfDWgKHmJk-7Qb6r5zX-10" edge="1">
          <mxGeometry width="50" height="50" relative="1" as="geometry">
            <mxPoint x="1050" y="1170" as="sourcePoint" />
            <mxPoint x="1100" y="1120" as="targetPoint" />
          </mxGeometry>
        </mxCell>
        <mxCell id="PcfDWgKHmJk-7Qb6r5zX-28" value="" style="endArrow=classic;html=1;rounded=0;fontFamily=Times New Roman;fontSize=19;entryX=0.447;entryY=0.017;entryDx=0;entryDy=0;entryPerimeter=0;exitX=0.5;exitY=1;exitDx=0;exitDy=0;exitPerimeter=0;" parent="1" source="PcfDWgKHmJk-7Qb6r5zX-3" target="PcfDWgKHmJk-7Qb6r5zX-6" edge="1">
          <mxGeometry width="50" height="50" relative="1" as="geometry">
            <mxPoint x="1050" y="1170" as="sourcePoint" />
            <mxPoint x="1100" y="1120" as="targetPoint" />
          </mxGeometry>
        </mxCell>
        <mxCell id="PcfDWgKHmJk-7Qb6r5zX-29" value="Negative" style="text;html=1;align=center;verticalAlign=middle;resizable=0;points=[];autosize=1;strokeColor=none;fillColor=none;fontSize=19;fontFamily=Times New Roman;" parent="1" vertex="1">
          <mxGeometry x="670" y="1125" width="80" height="30" as="geometry" />
        </mxCell>
        <mxCell id="PcfDWgKHmJk-7Qb6r5zX-30" value="Positive" style="text;html=1;align=center;verticalAlign=middle;resizable=0;points=[];autosize=1;strokeColor=none;fillColor=none;fontSize=19;fontFamily=Times New Roman;" parent="1" vertex="1">
          <mxGeometry x="890" y="1125" width="80" height="30" as="geometry" />
        </mxCell>
        <mxCell id="PcfDWgKHmJk-7Qb6r5zX-31" value="NO" style="text;html=1;align=center;verticalAlign=middle;resizable=0;points=[];autosize=1;strokeColor=none;fillColor=none;fontSize=19;fontFamily=Times New Roman;" parent="1" vertex="1">
          <mxGeometry x="1180" y="1135" width="40" height="30" as="geometry" />
        </mxCell>
        <mxCell id="PcfDWgKHmJk-7Qb6r5zX-32" value="YES" style="text;html=1;align=center;verticalAlign=middle;resizable=0;points=[];autosize=1;strokeColor=none;fillColor=none;fontSize=19;fontFamily=Times New Roman;" parent="1" vertex="1">
          <mxGeometry x="1355" y="1135" width="50" height="30" as="geometry" />
        </mxCell>
        <mxCell id="xiDewh_TFx8BP4Pc-UbQ-1" value="&lt;span style=&quot;&quot;&gt;GSM Module&lt;/span&gt;" style="rounded=1;whiteSpace=wrap;html=1;fillColor=#dae8fc;strokeColor=#6c8ebf;" parent="1" vertex="1">
          <mxGeometry x="1250" y="620" width="120" height="60" as="geometry" />
        </mxCell>
        <mxCell id="xiDewh_TFx8BP4Pc-UbQ-2" value="&lt;span style=&quot;&quot;&gt;GPS module&lt;/span&gt;" style="rounded=1;whiteSpace=wrap;html=1;arcSize=25;fillColor=#dae8fc;strokeColor=#6c8ebf;" parent="1" vertex="1">
          <mxGeometry x="650" y="650" width="120" height="60" as="geometry" />
        </mxCell>
        <mxCell id="xiDewh_TFx8BP4Pc-UbQ-3" value="&lt;span style=&quot;&quot;&gt;GPS module&lt;/span&gt;" style="rounded=1;whiteSpace=wrap;html=1;arcSize=25;fillColor=#dae8fc;strokeColor=#6c8ebf;" parent="1" vertex="1">
          <mxGeometry x="1560" y="630" width="120" height="60" as="geometry" />
        </mxCell>
        <mxCell id="xiDewh_TFx8BP4Pc-UbQ-4" value="&lt;span style=&quot;&quot;&gt;GSM Module&lt;/span&gt;" style="rounded=1;whiteSpace=wrap;html=1;fillColor=#dae8fc;strokeColor=#6c8ebf;" parent="1" vertex="1">
          <mxGeometry x="310" y="650" width="120" height="60" as="geometry" />
        </mxCell>
        <mxCell id="xiDewh_TFx8BP4Pc-UbQ-5" value="" style="endArrow=classic;startArrow=classic;html=1;rounded=0;exitX=1;exitY=0.5;exitDx=0;exitDy=0;entryX=0;entryY=0.5;entryDx=0;entryDy=0;" parent="1" source="eD_W4F-ZqSLjkosWsmbn-46" target="xiDewh_TFx8BP4Pc-UbQ-2" edge="1">
          <mxGeometry width="50" height="50" relative="1" as="geometry">
            <mxPoint x="620" y="680" as="sourcePoint" />
            <mxPoint x="670" y="630" as="targetPoint" />
          </mxGeometry>
        </mxCell>
        <mxCell id="xiDewh_TFx8BP4Pc-UbQ-6" value="" style="endArrow=classic;startArrow=classic;html=1;rounded=0;exitX=1;exitY=0.5;exitDx=0;exitDy=0;" parent="1" source="xiDewh_TFx8BP4Pc-UbQ-4" edge="1">
          <mxGeometry width="50" height="50" relative="1" as="geometry">
            <mxPoint x="620" y="680" as="sourcePoint" />
            <mxPoint x="470" y="680" as="targetPoint" />
          </mxGeometry>
        </mxCell>
        <mxCell id="LZyLbjjsxEZpc40yAGus-3" value="" style="endArrow=classic;html=1;rounded=0;entryX=1;entryY=0.5;entryDx=0;entryDy=0;exitX=0;exitY=0.75;exitDx=0;exitDy=0;" edge="1" parent="1" source="xiDewh_TFx8BP4Pc-UbQ-3" target="eD_W4F-ZqSLjkosWsmbn-61">
          <mxGeometry width="50" height="50" relative="1" as="geometry">
            <mxPoint x="1600" y="640" as="sourcePoint" />
            <mxPoint x="1650" y="590" as="targetPoint" />
          </mxGeometry>
        </mxCell>
        <mxCell id="LZyLbjjsxEZpc40yAGus-4" value="" style="endArrow=classic;html=1;rounded=0;entryX=0;entryY=0.5;entryDx=0;entryDy=0;exitX=1.011;exitY=0.116;exitDx=0;exitDy=0;exitPerimeter=0;" edge="1" parent="1" source="eD_W4F-ZqSLjkosWsmbn-61" target="eD_W4F-ZqSLjkosWsmbn-69">
          <mxGeometry width="50" height="50" relative="1" as="geometry">
            <mxPoint x="1520" y="560" as="sourcePoint" />
            <mxPoint x="1570" y="510" as="targetPoint" />
          </mxGeometry>
        </mxCell>
        <mxCell id="LZyLbjjsxEZpc40yAGus-5" value="" style="endArrow=classic;html=1;rounded=0;entryX=0;entryY=0.5;entryDx=0;entryDy=0;" edge="1" parent="1" target="eD_W4F-ZqSLjkosWsmbn-66">
          <mxGeometry width="50" height="50" relative="1" as="geometry">
            <mxPoint x="1520" y="715" as="sourcePoint" />
            <mxPoint x="1570" y="665" as="targetPoint" />
          </mxGeometry>
        </mxCell>
        <mxCell id="LZyLbjjsxEZpc40yAGus-6" value="" style="endArrow=classic;html=1;rounded=0;entryX=0.5;entryY=1;entryDx=0;entryDy=0;exitX=0.5;exitY=0;exitDx=0;exitDy=0;" edge="1" parent="1" source="eD_W4F-ZqSLjkosWsmbn-62" target="eD_W4F-ZqSLjkosWsmbn-61">
          <mxGeometry width="50" height="50" relative="1" as="geometry">
            <mxPoint x="1440" y="770" as="sourcePoint" />
            <mxPoint x="1490" y="720" as="targetPoint" />
          </mxGeometry>
        </mxCell>
        <mxCell id="LZyLbjjsxEZpc40yAGus-7" value="" style="endArrow=classic;html=1;rounded=0;exitX=1;exitY=0.5;exitDx=0;exitDy=0;entryX=0;entryY=0.75;entryDx=0;entryDy=0;" edge="1" parent="1" source="eD_W4F-ZqSLjkosWsmbn-67" target="eD_W4F-ZqSLjkosWsmbn-61">
          <mxGeometry width="50" height="50" relative="1" as="geometry">
            <mxPoint x="1320" y="690" as="sourcePoint" />
            <mxPoint x="1380" y="720" as="targetPoint" />
          </mxGeometry>
        </mxCell>
        <mxCell id="LZyLbjjsxEZpc40yAGus-8" value="" style="endArrow=classic;html=1;rounded=0;entryX=1;entryY=0.5;entryDx=0;entryDy=0;" edge="1" parent="1" target="xiDewh_TFx8BP4Pc-UbQ-1">
          <mxGeometry width="50" height="50" relative="1" as="geometry">
            <mxPoint x="1400" y="630" as="sourcePoint" />
            <mxPoint x="1450" y="580" as="targetPoint" />
          </mxGeometry>
        </mxCell>
        <mxCell id="LZyLbjjsxEZpc40yAGus-9" value="" style="endArrow=classic;html=1;rounded=0;entryX=0.004;entryY=0.138;entryDx=0;entryDy=0;entryPerimeter=0;exitX=1;exitY=0.5;exitDx=0;exitDy=0;" edge="1" parent="1" source="eD_W4F-ZqSLjkosWsmbn-68" target="eD_W4F-ZqSLjkosWsmbn-61">
          <mxGeometry width="50" height="50" relative="1" as="geometry">
            <mxPoint x="1320" y="549" as="sourcePoint" />
            <mxPoint x="1370" y="500" as="targetPoint" />
          </mxGeometry>
        </mxCell>
        <mxCell id="LZyLbjjsxEZpc40yAGus-10" value="" style="ellipse;whiteSpace=wrap;html=1;" vertex="1" parent="1">
          <mxGeometry x="1790" y="590" width="120" height="80" as="geometry" />
        </mxCell>
      </root>
    </mxGraphModel>
  </diagram>
</mxfile>
